<svg id="Layer_1" data-name="Layer 1" xmlns="http://www.w3.org/2000/svg" viewBox="0 0 42.09 28.49"><defs><style>.cls-1{fill:#fff;}</style></defs><path d="M11.18,19.22a.84.84,0,0,0-.48.14A.87.87,0,0,1,11,20.57a.83.83,0,0,1-.28.28.88.88,0,1,0,.93-1.5A.79.79,0,0,0,11.18,19.22Z"/><path d="M38.43,23V20H37.19V16.15a16.15,16.15,0,0,0-32.3,0V20H3.79v3H0a5.92,5.92,0,0,0,6.36,5.52H35.72A5.93,5.93,0,0,0,42.09,23ZM6.75,16.15A14.31,14.31,0,0,1,18.94,2s-3.66,4.25-3.66,12v4.31H6.75Z"/><rect class="cls-1" x="6.61" y="21.02" width="8.8" height="1.06"/></svg>