<svg xmlns="http://www.w3.org/2000/svg" viewBox="0 0 282.89 152.44"><title>Asset 4</title><path d="M269.34,86.85c-9.62,12.29-25.68,25.63-51.25,29.32V93.33h-7.48V89.79c0-20-4.77-49.75-13.91-67.55l-5.87-11.43A19.91,19.91,0,0,0,173.12,0h-2.86a19.91,19.91,0,0,0-14.41,6.17,19.91,19.91,0,0,1-28.82,0A19.91,19.91,0,0,0,112.62,0h-2.86A19.91,19.91,0,0,0,92.06,10.81L86.19,22.24C77,40,72.28,69.78,72.28,89.79v3.54H64.8v22.85c-25.57-3.69-41.63-17-51.25-29.32A7.58,7.58,0,0,0,.06,92.45c.92,7.64,3.07,15.28,7.47,20.72,34.85,43,133.91,39.18,133.91,39.18s99.06,3.84,133.91-39.18c4.4-5.44,6.55-13.07,7.47-20.72A7.58,7.58,0,0,0,269.34,86.85ZM92.87,25.67l5.87-11.43a12.36,12.36,0,0,1,11-6.73h2.85a12.79,12.79,0,0,1,3.07.39,0,0,0,0,0,0,0s-14.67,37.41.1,64a10.13,10.13,0,0,1-8.92,15h-27C80.27,68.15,84.81,41.37,92.87,25.67ZM72.28,112V98.3h69.16v7A5,5,0,0,0,133.7,101a5,5,0,0,1,0,8.46,5,5,0,0,0,7.74-4.22V112Z"/><path d="M80.79,100.23a5,5,0,0,0-2.71.79,5,5,0,0,1,0,8.46,5,5,0,1,0,2.71-9.25Z"/></svg>