<svg xmlns="http://www.w3.org/2000/svg" viewBox="0 0 209.79 147"><title>Asset 5</title><path d="M191.57,119.48V104.54h-6.16v-19A80.54,80.54,0,0,0,129.08,8.7c-.09-.28-.19-.55-.29-.82l-.07-.17q-.16-.38-.34-.75l-.09-.18c-.13-.25-.26-.49-.41-.73L127.82,6a12.2,12.2,0,0,0-1.64-2.06L126,3.7l-.51-.46L125.14,3l-.5-.39-.41-.29L123.74,2l-.56-.32-.46-.25q-.46-.23-.94-.42l-.4-.15-.7-.24-.44-.12-.72-.17-.44-.09-.8-.11-.39,0c-.4,0-.8-.06-1.21-.06H85.5q-.66,0-1.31.06l-.48.07c-.26,0-.53.06-.79.11l-.6.14L81.7.54c-.23.07-.45.15-.68.23l-.5.17c-.25.1-.5.22-.74.33l-.37.17c-.27.14-.54.29-.8.45L78.36,2c-.29.18-.56.37-.83.57l-.16.11c-.29.22-.57.46-.84.7l-.07.06q-.43.39-.82.82h0a11.46,11.46,0,0,0-3,7.48A80.51,80.51,0,0,0,24.39,85.51v19H18.89v14.94H0S1.26,147,31.73,147H178.07c30.47,0,31.73-27.52,31.73-27.52ZM101.59,9V96h-18L81.09,41.47,79.59,9ZM72,114.78H28.07v-5.29H72Zm4.2-18.69H33.64V85.51A71.31,71.31,0,0,1,73.28,21.69l3.18,44.8c-.18,2.62-.3,5.31-.3,8.12Z"/></svg>