<svg xmlns="http://www.w3.org/2000/svg" viewBox="0 0 234.75 106.87"><title>Asset 1</title><path d="M228.73,81.59l-38.43.16h0l5.52,0-4.45-19.22-4.76,0L176.37,9.12A11.24,11.24,0,0,0,165.29,0L117,.2,68.75.39a11.24,11.24,0,0,0-11,9.21L47.93,63.09l-5.09,0L38.54,82.37,6,82.5a6,6,0,0,0-4.43,10c13.24,14.75,34.24,14.4,34.24,14.4l68.51-.28,26.34-.11,68.51-.28s21,.18,34.12-14.68A6,6,0,0,0,228.73,81.59ZM65.58,12.7A5.56,5.56,0,0,1,71,8.16l16.69-.07S78,39.72,102.12,57.24l-44.93.18ZM48.27,76.85l1.47-7.3,52.43-.21,0,7.29Z"/></svg>