<svg xmlns="http://www.w3.org/2000/svg" viewBox="0 0 16.17 20"><defs><style>.a{fill:#f7d5ca;}</style></defs><title>Asset 3</title><path class="a" d="M6.12,15.67a2.86,2.86,0,0,0,.64.55L4.52,20,3.43,17.39.59,17.8l1.86-3.15.23.2a2.83,2.83,0,0,0,1.75.6h0l.31,0,1.07-.11ZM12,15.12a2.9,2.9,0,0,1-.52,0L11.07,15l-.66.73a2.86,2.86,0,0,1-.89.66L11.65,20l1.09-2.61,2.84.41-1.89-3.21A2.85,2.85,0,0,1,12,15.12Zm-2.2.2A2.15,2.15,0,0,1,8,14.17a2.2,2.2,0,0,1-1.43,1.11l.12.13A2.27,2.27,0,0,0,10,15.33ZM16.15,9A2.27,2.27,0,0,1,15,10.67,2.17,2.17,0,0,0,14.21,9a6.33,6.33,0,0,1-5.61,5l-.58,0a6.45,6.45,0,0,1-.64,0A6.3,6.3,0,0,1,1.74,8.35c0-.19,0-.38,0-.57a6.28,6.28,0,0,1,.76-3,2.17,2.17,0,0,0-1.86,1A2.27,2.27,0,0,1,2.28,3,2.16,2.16,0,0,0,2.5,4.72,6.34,6.34,0,0,1,5.7,1.91a2.17,2.17,0,0,0-2-.38A2.27,2.27,0,0,1,6.84.42a2.17,2.17,0,0,0-1,1.43,6.32,6.32,0,0,1,4.24-.05A2.17,2.17,0,0,0,8.76.27a2.27,2.27,0,0,1,3.19,1.18,2.17,2.17,0,0,0-1.7.42A6.33,6.33,0,0,1,13.48,4.6a2.17,2.17,0,0,0,0-2.1,2.27,2.27,0,0,1,1.72,3,2.17,2.17,0,0,0-1.61-.78,6.3,6.3,0,0,1,.67,4.2,2.17,2.17,0,0,0,1.41-1.71A2.27,2.27,0,0,1,16.15,9ZM14.21,7.78a6.16,6.16,0,0,0-.8-3h0A6.21,6.21,0,0,0,10.14,2h0A6.19,6.19,0,0,0,5.81,2h0a6.19,6.19,0,0,0-4,5.78,6.08,6.08,0,0,0,.25,1.74,6.18,6.18,0,0,0,5.36,4.42L8,14l.51,0a6.15,6.15,0,0,0,2.94-1,6.24,6.24,0,0,0,.9-.73A6.17,6.17,0,0,0,14.21,7.78ZM1,11a2.17,2.17,0,0,1,.37-1.55A2.13,2.13,0,0,1,1.79,9a2.14,2.14,0,0,1-.6-.3,2.18,2.18,0,0,1-.73-.9A2.27,2.27,0,0,0,1,11Zm2.4,1.83a2.17,2.17,0,0,1-1.2-.2,2.27,2.27,0,0,0,2.52,2.18,2.17,2.17,0,0,1-.73-2.13A2.12,2.12,0,0,1,3.37,12.86Zm8.24,1.64h0a2.27,2.27,0,0,0,1.76-.42l.16-.13a2.27,2.27,0,0,0,.75-1.66,2.17,2.17,0,0,1-1.6.56,2.14,2.14,0,0,1-.68-.15,2.19,2.19,0,0,1-.41,1.81ZM8,2.22a5.52,5.52,0,0,0-5.48,6.4q0,.24.09.47a5.55,5.55,0,0,0,1.7,2.83l.33.27a5.52,5.52,0,0,0,3.11,1.13H8.2a5.52,5.52,0,0,0,3.12-1.08l.39-.31A5.55,5.55,0,0,0,8,2.22Z"/></svg>