<svg xmlns="http://www.w3.org/2000/svg" viewBox="0 0 186.23 61.18"><title>Asset 2</title><path d="M112.19,4.39c-4,1-6.11,1.83-6.11,1.83a36.75,36.75,0,0,1-13,1.89,36.68,36.68,0,0,1-13-1.89S78,5.41,74.05,4.39C62.35,1.34,34.82-3.67,0,4.25L1.09,16.1S5,16,6.5,22.2c0,0,5,27.67,10.12,32.11,0,0,.16.18.46.48,1.51,1.43,7.05,5.7,20,6.25,0,0,18.84,1.76,31.16-7.27,0,0,6.63-2.56,19.1-32.47,0,0,.81-3.42,5.78-3.33,5-.09,5.78,3.33,5.78,3.33C111.37,51.22,118,53.78,118,53.78c12.33,9,31.16,7.27,31.16,7.27,9.85-.41,15.41-3,18.18-4.83a11.1,11.1,0,0,0,2.28-1.89c5.15-4.45,10.12-32.11,10.12-32.11,1.53-6.19,5.42-6.1,5.42-6.1l1.08-11.85C151.41-3.67,123.89,1.34,112.19,4.39Zm-34,16.38s-.9,18.86-14.45,30.17c0,0-13.74,10.24-36.86,4.13,0,0-5.68-1.83-7.58-4.93,0,0-6-9.17-5.42-30.72a13.07,13.07,0,0,1,8.4-11.59s7.5-3.06,22.31-3.06c0,0,18.43-.18,28.18,5.21C72.8,10,78.76,12.86,78.22,20.77Zm88.69,29.37c-1.9,3.1-7.58,4.93-7.58,4.93-23.12,6.11-36.85-4.13-36.85-4.13C108.93,39.63,108,20.77,108,20.77c-.54-7.91,5.42-10.78,5.42-10.78,9.76-5.4,28.19-5.21,28.19-5.21,14.8,0,22.3,3.06,22.3,3.06a13.06,13.06,0,0,1,8.4,11.59C172.87,41,166.91,50.14,166.91,50.14Z"/></svg>