<svg xmlns="http://www.w3.org/2000/svg" viewBox="0 0 193.37 74.13"><title>Asset 1</title><path d="M187.56,34.93c-11.5-10.7-32.7-25.2-67.6-31.7A191.76,191.76,0,0,0,15,13.33c-18.4,7.2-20.2,26.2-3.3,38l2.4,1.7v21.1h173.8V60.63l1-1C195.36,53.33,194.76,41.63,187.56,34.93ZM83.06,68.83l-57.2-.7v-7.9l57.2,1.7ZM83,19c-9.2,7.6-11.1,19.8-5.3,30.7l-48.9-2.8c-5-.3-9.6-2.8-11.5-6.5a17.8,17.8,0,0,1-1-2.1C5,12.13,75.36,7.23,93.36,7.73c1.5,0,4.4.2,6.7.4A79.74,79.74,0,0,0,83,19Z"/><polygon points="49.86 25.03 46.96 19.23 44.06 25.03 37.66 26.03 42.26 30.53 41.16 36.93 46.96 33.93 52.76 36.93 51.66 30.53 56.26 26.03 49.86 25.03"/></svg>