<svg xmlns="http://www.w3.org/2000/svg" viewBox="0 0 16.29 20"><defs><style>.a{fill:#f7d5ca;}</style></defs><title>Asset 2</title><path class="a" d="M7.1,16.16l.22.2L5.29,20l-.95-2.26-2.46.35,1.68-3h0a4,4,0,0,0,.46,0l.26.56.26.35,0,0a1.67,1.67,0,0,0,1.2.49,1.8,1.8,0,0,0,.56-.09h0l.63-.3Zm6.12-1.66h-.17l-.22.64v0l0,0a1.76,1.76,0,0,1-1.55.93H11l-.78-.24-.26.3L12.08,20,13,17.74l2.46.35-2-3.6ZM6.67.89l.49.17L7.6,1a5.35,5.35,0,0,1,.6,0L8.67.77l.21-.1L8.67.5A1.49,1.49,0,0,0,7.87,0,1.35,1.35,0,0,0,6.59.69l-.1.13.11,0Zm2.63.23A7.28,7.28,0,0,1,11.65,2l.41.25-.21-.43-.26-.55L11.46,1a1.16,1.16,0,0,0-1.38-.5l-.3.15L9.3.85l-.43.21ZM6,1.3l.43-.12A2.55,2.55,0,0,1,6,1L5.68.9A1.44,1.44,0,0,0,4.57.82a1.28,1.28,0,0,0-.71.88c-.05.16-.09.33-.14.49a3,3,0,0,1-.15.43l.37-.29A7.1,7.1,0,0,1,6,1.3Zm8.42,7.38a6.17,6.17,0,0,1-.77,2.52l-.18.29-.23.34,0,0a6.49,6.49,0,0,1-3.89,2.52l-.07,0a6.26,6.26,0,0,1-1.6.11H7.47a6.28,6.28,0,0,1-2.83-1l-.13-.08a6.56,6.56,0,0,1-1.21-1l-.07-.07a5.86,5.86,0,0,1-.76-1.08,5.79,5.79,0,0,1-.65-1.66c0-.11,0-.22-.06-.32a6.59,6.59,0,0,1-.09-1.38c0-.12,0-.23,0-.35a6.27,6.27,0,0,1,1-2.88l.21-.3a6.72,6.72,0,0,1,.84-.93l.24-.21H4A6.5,6.5,0,0,1,6.69,1.83h0L7,1.78a6.39,6.39,0,0,1,2.64.08,6.24,6.24,0,0,1,2.12,1h0a6.85,6.85,0,0,1,1.18,1.05v0a5.75,5.75,0,0,1,.88,1.31,5.73,5.73,0,0,1,.55,1.56l0,.17a6.61,6.61,0,0,1,.08,1.6S14.47,8.64,14.47,8.68ZM12.78,5.11a5.65,5.65,0,0,0-9.72.21A5.73,5.73,0,0,0,2.7,10a5.73,5.73,0,0,0,4.46,3.63,5.76,5.76,0,0,0,3.1-.42A5.64,5.64,0,0,0,13.6,8.44l0,0A5.86,5.86,0,0,0,12.78,5.11ZM12.6,2.59l0,.1c.14.11.28.31.45.37l.1,0h0l.32.12.45.15c0-.1,0-.19,0-.28a1.33,1.33,0,0,0-.27-.89,1.32,1.32,0,0,0-1.21-.41l-.28,0,.19.4ZM1.8,4.06,2,4l.51-.26A5.82,5.82,0,0,1,3,3.13l0,0,.17-.5,0,0,.08-.22H3a1.43,1.43,0,0,0-.83.25,1.27,1.27,0,0,0-.44,1.2C1.78,3.87,1.79,4,1.8,4.06Zm8.46-.2a4.88,4.88,0,0,0-5.1.33A4.76,4.76,0,0,0,3.28,9a4.79,4.79,0,0,0,8.34,2.21A4.81,4.81,0,0,0,12.3,6,4.94,4.94,0,0,0,10.27,3.86Zm3.22-.34.29.37a7,7,0,0,1,1.16,2.41c0,.16.08.32.11.48l.17-.49.19-.57c.06-.17.11-.35.16-.52A1.13,1.13,0,0,0,14.94,4l-.29-.1-.71-.24ZM.62,6.54l.19.4.2.42c0-.15,0-.31.06-.46a7.16,7.16,0,0,1,.76-2.22l.22-.39-.42.2-.36.17c-.16.08-.31.15-.46.25A1.15,1.15,0,0,0,.43,6.14Zm15.07.14-.21-.17a3,3,0,0,1-.14.42,3.66,3.66,0,0,0-.16.44,1.21,1.21,0,0,0,0,.56l.06.13.19.38.21.45.19-.21a1.28,1.28,0,0,0,.47-.86A1.29,1.29,0,0,0,15.7,6.68ZM.87,9.61,1,9.11C1,9,1,8.88,1,8.76s0-.19,0-.28,0-.28,0-.43L.74,7.58.66,7.41l-.19.21A1.48,1.48,0,0,0,0,8.4,1.32,1.32,0,0,0,.6,9.63l.21.17Zm14.81.18-.32-.67-.22-.45q0,.25-.05.49a7,7,0,0,1-.94,2.62c-.08.14-.17.28-.27.41l.44-.21.72-.34.34-.16.23-.2a1.16,1.16,0,0,0,.24-1.13Zm-12.94,3-.31-.37A6.84,6.84,0,0,1,1.3,10.2c0-.14-.08-.29-.12-.43L1,10.22l-.13.4-.08.23a1.21,1.21,0,0,0-.07.63,1.18,1.18,0,0,0,.64.82l.38.13.51.17Zm10.61.06c0,.18-.11.37-.17.55l-.19.56h.27a1.35,1.35,0,0,0,.87-.25,1.26,1.26,0,0,0,.43-1.15c0-.09,0-.18,0-.27l-.56.26,0,0-.27.13-.1,0C13.49,12.75,13.42,12.74,13.35,12.82Zm-9.69.88,0-.07-.4-.35,0,0-.47-.15L2.35,13c0,.09,0,.18,0,.27a1.29,1.29,0,0,0,.42,1,1.27,1.27,0,0,0,1,.25H4L4,14.36l-.13-.26Zm7,1.71.53.16A1.15,1.15,0,0,0,12.28,15l.13-.38.17-.49.08-.25.15-.46-.37.31A7,7,0,0,1,10,14.92L9.5,15l.33.11.13,0Zm-6-1.13-.15-.09L4.2,14l.09.19.11.22.26.54.15.32.2.27a1.13,1.13,0,0,0,1.16.25l.37-.17.59-.28.46-.21-.49-.05A6.91,6.91,0,0,1,4.59,14.27Zm4.72,1.06a3.6,3.6,0,0,0-.39-.14,1.1,1.1,0,0,0-.6,0l-.1,0-.37.19,0,0-.41.19.21.19,0,0a1.34,1.34,0,0,0,1,.45,1.35,1.35,0,0,0,1-.59l0,0,.14-.17-.28-.08Z"/></svg>