<svg xmlns="http://www.w3.org/2000/svg" viewBox="0 0 16.34 20"><defs><style>.a{fill:#f7d5ca;}</style></defs><title>Asset 2</title><path class="a" d="M16.09,7.63,14.71,6.46h0a.14.14,0,0,1,0-.07h0l.61-1.71a.77.77,0,0,0,0-.25.7.7,0,0,0-.59-.69L13,3.42h0l0,0v0h0L12.6,1.59A.7.7,0,0,0,11.91,1a.73.73,0,0,0-.25,0L10,1.65H9.89L8.71.26a.7.7,0,0,0-1.08,0L6.46,1.63l-.07,0h0L4.68,1a.73.73,0,0,0-.25,0,.7.7,0,0,0-.69.59L3.42,3.37h0l0,0h0l-1.78.32A.7.7,0,0,0,1,4.43a.72.72,0,0,0,0,.25l.61,1.7h0a.13.13,0,0,1,0,.05v0h0L.25,7.63a.7.7,0,0,0,0,1.08L1.63,9.89h0a.13.13,0,0,1,0,.07h0L1,11.66a.73.73,0,0,0,0,.25.7.7,0,0,0,.59.69l1.78.33h0l0,0v0l.32,1.78a.7.7,0,0,0,.69.59.73.73,0,0,0,.25,0l1.71-.61h.07l1.17,1.38a.71.71,0,0,0,.54.25h0a.71.71,0,0,0,.54-.25l1.17-1.38.07,0h0l1.7.61a.73.73,0,0,0,.25,0,.71.71,0,0,0,.69-.59L12.93,13h0l0,0h0l1.78-.32a.71.71,0,0,0,.59-.69.74.74,0,0,0,0-.25L14.69,10h0a.17.17,0,0,1,0-.05v0h0l1.38-1.17a.7.7,0,0,0,0-1.08ZM14.46,9.29a1,1,0,0,0-.33.75.88.88,0,0,0,.05.31L14.76,12l-1.7.31a1,1,0,0,0-.77.77L12,14.76l-1.63-.58a.88.88,0,0,0-.3-.05,1,1,0,0,0-.75.33L8.17,15.78,7.05,14.46a1,1,0,0,0-.75-.33.88.88,0,0,0-.3.05l-1.63.58-.31-1.7a1,1,0,0,0-.77-.77L1.59,12l.58-1.63a.91.91,0,0,0,.05-.3,1,1,0,0,0-.33-.75L.57,8.17,1.89,7.05a1,1,0,0,0,.33-.75.91.91,0,0,0,0-.3L1.59,4.37l1.7-.31a1,1,0,0,0,.77-.77l.31-1.7L6,2.17a.89.89,0,0,0,.3.05,1,1,0,0,0,.75-.33L8.17.57,9.29,1.89a1,1,0,0,0,.75.33.92.92,0,0,0,.3,0L12,1.59l.31,1.7a1,1,0,0,0,.77.77l1.7.31L14.18,6a.88.88,0,0,0-.05.3,1,1,0,0,0,.33.75l1.32,1.12ZM8.17,2.73a5.44,5.44,0,1,0,5.44,5.44A5.44,5.44,0,0,0,8.17,2.73Zm3.37,8.82a4.77,4.77,0,1,1,1.4-3.37A4.76,4.76,0,0,1,11.55,11.55ZM6.22,15.1l.53.63L5,19.94c0,.08-.1.08-.14,0l-1.2-2.08a.22.22,0,0,0-.23-.1l-2.33.57c-.08,0-.12,0-.09-.11l2.1-4.9v.16l.05,0L3.39,15a.91.91,0,0,0,.89.76h.07a.93.93,0,0,0,.26-.05Zm9.16,3.13c0,.08,0,.13-.09.11L13,17.77a.22.22,0,0,0-.23.1l-1.2,2.08c0,.07-.1.07-.14,0l-1.8-4.21.53-.63,1.61.57a.94.94,0,0,0,.32.06h0A.92.92,0,0,0,13,15l.31-1.67h0Zm-3-10.06A4.17,4.17,0,1,1,8.17,4,4.17,4.17,0,0,1,12.34,8.17Z"/></svg>