<svg xmlns="http://www.w3.org/2000/svg" viewBox="0 0 13.97 20"><defs><style>.a{fill:#f7d5ca;}</style></defs><title>Asset 1</title><path class="a" d="M11,13.28l1.63,5.45L10,17.56,8.42,20l-1.1-4.68L6.17,20,4.63,17.54,2,18.68l1.58-5.07h0l0,0a4,4,0,0,0,1.88,1,.6.6,0,0,0,.46-.2l0,0,.15.05.2.06.2.06a4.77,4.77,0,0,0,1.16.19,1,1,0,0,0,.52-.12.59.59,0,0,0,.25-.28l0,0h0c.69,0,2.3-.09,2.31-.88v0Zm2.41-3.73c.13.16-.56,1-1.42,1.68l-.14-.3h0a4.88,4.88,0,0,1,.28.66c0,.13-.37.44-1,.73l-.15.07-.15.06h0a6.35,6.35,0,0,1-.62.22c0-.11,0-.22,0-.33h0a4.87,4.87,0,0,1,0,.72c0,.18-.91.4-1.87.39H8.08c0-.1.06-.21.08-.32h0a4.87,4.87,0,0,1-.21.69l0,0a2.51,2.51,0,0,1-1.28-.13l-.18-.05-.18-.06-.47-.18L6,13.17H6a4.87,4.87,0,0,1-.43.58c-.13.15-1.06-.33-1.82-1l-.08-.08.14-.1.14-.1h0l-.13.09-.14.1-.21.13-.12.07H3.24A4.12,4.12,0,0,1,1.9,11.16l.33-.09h0a4.88,4.88,0,0,1-.7.17c-.2,0-.63-1-.75-2.07l.33,0h0A4.79,4.79,0,0,1,.38,9.1c-.2,0-.24-1.16,0-2.2L.69,7h0A4.88,4.88,0,0,1,0,6.72c-.17-.1.16-1.17.75-2.06L1,4.89H1a4.85,4.85,0,0,1-.49-.53C.42,4.2,1.1,3.31,2,2.68l.14.3h0a4.91,4.91,0,0,1-.28-.66c-.07-.19.88-.79,1.91-1.1,0,.11,0,.22,0,.33h0a4.85,4.85,0,0,1,0-.72c0-.2,1.1-.44,2.16-.38,0,.1-.06.21-.08.32h0A4.93,4.93,0,0,1,6,.08c.07-.19,1.18,0,2.16.38L8,.74H8A5,5,0,0,1,8.42.16c.13-.15,1.12.37,1.9,1.1l-.27.19h0a4.82,4.82,0,0,1,.6-.4c.18-.1.93.73,1.41,1.69l-.32.09h0a4.81,4.81,0,0,1,.7-.17c.2,0,.63,1,.75,2.07l-.33,0h0a4.84,4.84,0,0,1,.72.08c.2,0,.25,1.16,0,2.2l-.3-.14h0a4.83,4.83,0,0,1,.64.32c.17.1-.16,1.17-.75,2.06L12.93,9h0A4.91,4.91,0,0,1,13.42,9.55Zm-.91-2.92a3.78,3.78,0,0,1-.43,1.54l0,0c.16.12.31.24.46.37a3.41,3.41,0,0,0,.54-1.68A4.32,4.32,0,0,0,12.52,6.63ZM4.63,11.78v0l.09-.07,0,0,.13-.11L5,11.45l.26-.26.09-.09,0,0,.12-.13.09-.1h0a3.78,3.78,0,0,1-1.11-.58l-.31.17-.13.07-.09,0-.43.19c.08.12.17.24.26.35l.12.14.13.13A1.56,1.56,0,0,0,4.63,11.78ZM3.88,2.91a3,3,0,0,0-1.25.89l.05.11v0l.08.14.11.17.29.4L3.46,5h0a4,4,0,0,1,.76-.93l0,0V4L4.07,3.6C4,3.37,3.93,3.13,3.88,2.91ZM4,2.62v0l0,.16,0,.2c0,.16.08.32.13.48l.15.45h0a4,4,0,0,1,1-.61h0V3.22c0-.14,0-.28,0-.41s0-.49.06-.72A3,3,0,0,0,4,2.5ZM1.82,5.47l.09.08,0,0,.12.1.16.12.41.28L3,6.3H3a4,4,0,0,1,.39-1.12v0l0,0L3.1,4.8c-.15-.19-.29-.39-.41-.59A3,3,0,0,0,1.82,5.47Zm-.2,1.86.11,0h0l.16.06.19.06.48.12L3,7.71H3a4,4,0,0,1,0-1.23L2.6,6.26C2.39,6.13,2.19,6,2,5.85A3,3,0,0,0,1.62,7.33Zm.45,1.81h.26a6.32,6.32,0,0,0,.76-.06l.35,0h0a4,4,0,0,1-.36-.82C3,8.11,3,8,3,7.88L2.62,7.8c-.24-.05-.48-.11-.7-.19A3,3,0,0,0,2.07,9.14Zm.39.17a3.06,3.06,0,0,0,.65,1.38l.14,0h0a6,6,0,0,0,.76-.33l.31-.16h0a4,4,0,0,1-.83-.93l-.35,0C2.93,9.27,2.69,9.3,2.46,9.31ZM5,11.66a4.92,4.92,0,0,0,.78.46L6,12.2l.19.06.2,0h0l.06-.1,0,0L6.58,12l.08-.15,0,0,.08-.16,0,0,.07-.15h0l0-.1,0,0L7,11H6.89a4,4,0,0,1-1.1-.16l-.09.1-.12.13,0,0-.08.09C5.32,11.39,5.17,11.54,5,11.66Zm2.21-1.19h.17a3.45,3.45,0,0,0,1-.32l.07,0h0l.07,0A3.48,3.48,0,0,0,9,9.79a3.44,3.44,0,0,0,.43-.39l.12-.13a3.47,3.47,0,0,0,.41-.61c0-.09.09-.18.13-.27l.06-.16c0-.08.06-.16.08-.24A3.45,3.45,0,0,0,8.51,4,3.44,3.44,0,0,0,6,3.71a3.38,3.38,0,0,0-.47.16l-.15.07a3.44,3.44,0,0,0-.83.57l-.12.12-.2.22a3.47,3.47,0,0,0-.39.58v0l0,.08h0l0,.08a3.42,3.42,0,0,0-.29,1v.08h0v.08a3.4,3.4,0,0,0,0,.57,3.51,3.51,0,0,0,.08.48h0l0,.08h0l0,.08h0l0,.07A3.48,3.48,0,0,0,4,8.95H4l0,.07h0l.05.07h0a3.41,3.41,0,0,0,.76.75h0l.07,0h0l.07,0H5l.26.15a3.46,3.46,0,0,0,.72.28H6l.08,0h0l.08,0h0a3.49,3.49,0,0,0,.48.07h.23v0h0Zm3.63-3.14,0,0,.08,0,0,0,.35.22c.21.13.41.27.59.41a3,3,0,0,0,.38-1.48l-.11,0h0L12,6.46l-.09,0-.57-.15-.46-.1h-.12A4,4,0,0,1,10.88,7.34Zm1-2.57h-.25a6.29,6.29,0,0,0-.76.06l-.47.06h-.14a4,4,0,0,1,.28.53,4.06,4.06,0,0,1,.16.42l0,.12h.07l.09,0h0l.4.09c.24.05.48.11.7.19A3,3,0,0,0,11.89,4.77Zm-.39-.17a3,3,0,0,0-.66-1.38l-.11,0h0l-.16.06-.12.05-.51.24-.42.22,0,0h0l-.07,0h0a3.93,3.93,0,0,1,.8.85h.21l.41-.06C11,4.63,11.27,4.61,11.51,4.6ZM10.43,3.2A3,3,0,0,0,9.34,2.13l-.1.08,0,0-.13.11L9,2.41c-.13.12-.26.26-.4.4l-.32.35,0,0h0l0,.06a4,4,0,0,1,.57.24h0a4,4,0,0,1,.45.29h0l.08,0,.08,0,0,0,.36-.19C10,3.39,10.22,3.28,10.43,3.2Zm-1.49-1a3.43,3.43,0,0,0-1.36-.64h0l-.07.1,0,0-.08.14L7.3,2c-.08.15-.15.31-.22.48L6.9,3l0,0h0V3h0A4,4,0,0,1,8,3.21l0-.06.06-.07,0,0,.28-.31C8.59,2.57,8.76,2.4,8.94,2.25Zm-.42,9.57A3,3,0,0,0,10,11.41s0-.08,0-.12v0c0-.05,0-.11,0-.17l0-.18h0l0-.15,0-.15-.05-.18L9.62,10h0a4,4,0,0,1-.88.62l-.14.07v0c0,.1,0,.19,0,.29s0,.08,0,.12v.21C8.55,11.49,8.54,11.66,8.51,11.82ZM10,10.71l0,.16,0,.13.32-.16.14-.08.14-.09a1.81,1.81,0,0,0,.64-.56l-.05-.1,0,0-.08-.15,0-.08c-.1-.16-.22-.33-.35-.49l-.29-.38,0,0h0l0,.06a4,4,0,0,1-.68.93l0,0v0l.13.39.08.25Zm2.13-2.28-.09-.08,0,0-.13-.11-.16-.12-.41-.28-.4-.25,0,0h0l0,0a4,4,0,0,1-.33,1.16h0l.06.07,0,0,.25.33c.15.2.29.39.41.59A3,3,0,0,0,12.15,8.44Zm0-3.68h-.05a3.82,3.82,0,0,1,.12,1.59h0c.2.06.39.13.57.2a3.42,3.42,0,0,0-.07-1.77A4.4,4.4,0,0,0,12.12,4.76Zm-.95-1.67h0L11,3.15a3.76,3.76,0,0,1,.66,1.45h.63A3.42,3.42,0,0,0,11.64,3,3.94,3.94,0,0,0,11.17,3.09ZM10,1.61A4.23,4.23,0,0,0,9.47,2a3.77,3.77,0,0,1,1.12,1.14h0l.55-.21A3.39,3.39,0,0,0,10,1.61ZM7.62,1.45a3.75,3.75,0,0,1,1.44.69l0,0c.15-.14.3-.27.45-.39A3.8,3.8,0,0,0,8,.9H8a3.65,3.65,0,0,0-.22.32v0ZM5.7,1.56a1.36,1.36,0,0,1,.34,0,4.86,4.86,0,0,1,1.25.19l0,0c.09-.18.19-.35.29-.51A5,5,0,0,0,6.13.89c-.23,0-.28,0-.28,0a3.69,3.69,0,0,0-.1.36l0,.22Zm-.11.69c0,.16,0,.32,0,.49s0,.31,0,.47v.05h0a4,4,0,0,1,1.15-.23l0,0,0-.08v0l.16-.38a7.15,7.15,0,0,1,.3-.65A4.65,4.65,0,0,0,6,1.69a.71.71,0,0,0-.36.05l0,.12v0l0,.16C5.61,2.11,5.6,2.18,5.59,2.25ZM3.86,1.68a4.31,4.31,0,0,0,.08.65,3.81,3.81,0,0,1,1.55-.4c0-.21.06-.42.1-.62A3.43,3.43,0,0,0,3.86,1.68ZM2.24,3.07a3.78,3.78,0,0,0,.2.42v0l.08.14a3.8,3.8,0,0,1,1.32-.9v0c0-.19-.08-.39-.11-.58A3.41,3.41,0,0,0,2.24,3.07Zm-1,1.86.27.27.06.05.15.13a3.8,3.8,0,0,1,.93-1.3l0,0c-.11-.17-.21-.34-.3-.51A3.42,3.42,0,0,0,1.2,4.92Zm.08,2.3h0l.15.06a3.8,3.8,0,0,1,.43-1.54l0,0c-.16-.12-.32-.25-.46-.38A3.41,3.41,0,0,0,.85,7,3.79,3.79,0,0,0,1.28,7.22Zm.57,1.94h0a3.81,3.81,0,0,1-.12-1.59h0l-.56-.19a3.41,3.41,0,0,0,.06,1.77A4.44,4.44,0,0,0,1.85,9.15Zm.48,1.79A4.31,4.31,0,0,0,3,10.76a3.77,3.77,0,0,1-.66-1.45H1.66A3.47,3.47,0,0,0,2.33,10.95Zm2,1.07.13-.11a2.08,2.08,0,0,1-.51-.4l-.13-.13-.12-.14a5.16,5.16,0,0,1-.36-.47h0L2.79,11a5.45,5.45,0,0,0,.73,1l.13.13.13.11.13.09.07,0v0l0,0L4.37,12Zm2,.44-.1,0-.18-.05-.19-.07a5,5,0,0,1-1-.55l0,0c-.15.14-.29.27-.44.38A4.23,4.23,0,0,0,5.89,13H6l.07-.09.12-.17.11-.18Zm1.92-.11a1.35,1.35,0,0,1-.34,0,4.84,4.84,0,0,1-1.25-.19l0,0c-.09.18-.19.35-.29.51A5,5,0,0,0,7.84,13c.23,0,.28,0,.28,0A4.25,4.25,0,0,0,8.26,12.35Zm.12-.88v-.1c0-.06,0-.11,0-.17v0s0-.09,0-.14,0-.2,0-.3h0A4,4,0,0,1,7.21,11l-.15.37h0v0L7,11.56l0,.07,0,.08-.05.12L6.76,12a4.64,4.64,0,0,0,1.17.17.71.71,0,0,0,.36-.05v0l0-.08V12l0-.13v-.06C8.37,11.69,8.38,11.58,8.39,11.47Zm1.72.77a4.3,4.3,0,0,0-.08-.65,3.37,3.37,0,0,1-1.25.37l-.3,0v0c0,.2-.05.39-.09.58h.27A3,3,0,0,0,10.11,12.23Zm1.62-1.39a4.38,4.38,0,0,0-.29-.58,2.61,2.61,0,0,1-.7.57l-.14.08-.14.08-.34.17v0c0,.2.08.39.11.58l.4-.17.15-.07.14-.08A2.1,2.1,0,0,0,11.73,10.84Zm1-1.86a3.51,3.51,0,0,0-.27-.27l0,0-.17-.14a3.8,3.8,0,0,1-.93,1.3l0,0c.11.17.21.34.31.51A3.41,3.41,0,0,0,12.77,9Zm-5.88.93A2.88,2.88,0,1,1,8.24,4.5,2.88,2.88,0,0,1,6.89,9.92Zm2.2-1.71a2.48,2.48,0,1,0-2.2,1.32A2.47,2.47,0,0,0,9.09,8.21Z"/></svg>